# AST/ASF file generated using VICON BodyLanguage
# -----------------------------------------------
:version 1.10
:name VICON
:units
  mass 1.0
  length 0.45
  angle deg
:documentation
   .ast/.asf automatically generated from VICON data using
   VICON BodyBuilder and BodyLanguage model FoxedUp or BRILLIANT.MOD
:root
   order TX TY TZ RX RY RZ
   axis XYZ
   position 0 0 0  
   orientation 0 0 0 
:bonedata
  begin
     id 1 
     name lhipjoint
     direction 0.567149 -0.783011 0.255413 
     length 2.28399 
     axis 0 0 0  XYZ
  end
  begin
     id 2 
     name lfemur
     direction 0.34202 -0.939693 0  
     length 7.34031  
     axis 0 0 20  XYZ
    dof rx ry rz
    limits (-160.0 20.0)
           (-70.0 70.0)
           (-60.0 70.0)
  end
  begin
     id 3 
     name ltibia
     direction 0.34202 -0.939693 0   
     length 6.9833   
     axis 0 0 20   XYZ
    dof rx
    limits (-10.0 170.0)
  end
  begin
     id 4 
     name lfoot
     direction 0.136498 -0.375025 0.91691   
     length 2.33665   
     axis -90 7.62852e-016 20   XYZ
    dof rx rz
    limits (-45.0 90.0)
           (-70.0 20.0)
  end
  begin
     id 5 
     name ltoes
     direction 1.5367e-011 -4.21617e-011 1   
     length 1.15039   
     axis -90 7.62852e-016 20   XYZ
    dof rx
    limits (-90.0 20.0)
  end
  begin
     id 6 
     name rhipjoint
     direction -0.602854 -0.758518 0.247423   
     length 2.35775  
     axis 0 0 0  XYZ 
  end
  begin
     id 7 
     name rfemur
     direction -0.34202 -0.939693 0   
     length 7.43932   
     axis 0 0 -20   XYZ
    dof rx ry rz
    limits (-160.0 20.0)
           (-70.0 70.0)
           (-70.0 60.0)
  end
  begin
     id 8 
     name rtibia
     direction -0.34202 -0.939693 0   
     length 7.11893   
     axis 0 0 -20   XYZ
    dof rx
    limits (-10.0 170.0)
 end
 begin
     id 9 
     name rfoot
     direction -0.131771 -0.362037 0.922803   
     length 2.53019  
     axis -90 -7.62852e-016 -20   XYZ
    dof rx rz
    limits (-45.0 90.0)
           (-20.0 70.0)
  end
  begin
     id 10 
     name rtoes
     direction -1.53733e-011 -4.21932e-011 1   
     length 1.24596   
     axis -90 -7.62852e-016 -20   XYZ
    dof rx
    limits (-90.0 20.0)
  end
  begin
     id 11 
     name lowerback
     direction 0.0235427 0.999023 -0.0374125   
     length 2.21768   
     axis 0 0 0   XYZ
    dof rx ry rz
    limits (-20.0 45.0)
           (-30.0 30.0)
           (-30.0 30.0)
  end
  begin
     id 12 
     name upperback
     direction 0.0302156 0.996818 -0.073759   
     length 2.20352   
     axis 0 0 0   XYZ
    dof rx ry rz
    limits (-20.0 45.0)
           (-30.0 30.0)
           (-30.0 30.0)
  end
  begin
     id 13 
     name thorax
     direction 0.0187169 0.998235 -0.0563532   
     length 2.22103   
     axis 0 0 0   XYZ
    dof rx ry rz
    limits (-20.0 45.0)
           (-30.0 30.0)
           (-30.0 30.0)
  end
  begin
     id 14 
     name lowerneck
     direction -0.119528 0.987423 0.103481   
     length 1.72948   
     axis 0 0 0   XYZ
    dof rx ry rz
    limits (-20.0 45.0)
           (-30.0 30.0)
           (-30.0 30.0)
  end
  begin
     id 15 
     name upperneck
     direction 0.248049 0.963095 -0.104496   
     length 1.74979   
     axis 0 0 0   XYZ
    dof rx ry rz
    limits (-20.0 45.0)
           (-30.0 30.0)
           (-30.0 30.0)
  end
  begin
     id 16
     name head
     direction 0.0903589 0.994284 -0.056876  
     length 1.78268  
     axis 0 0 0   XYZ
    dof rx ry rz
    limits (-20.0 45.0)
           (-30.0 30.0)
           (-30.0 30.0)
  end
  begin
     id 17 
     name lclavicle
     direction 0.946008 0.242039 -0.215608  
     length 3.80783  
     axis 0 0 0   XYZ
    dof ry rz
    limits (-20.0 10.0)
           (0.0 20.0)
  end
  begin
     id 18 
     name lhumerus
     direction 1 -4.48991e-011 -2.25695e-027   
     length 4.83125   
     axis 180 -30 -90   XYZ
    dof rx ry rz
    limits (-60.0 90.0)
           (-90.0 90.0)
           (-90.0 90.0)
  end
  begin
     id 19
     name lradius
     direction 0.999991 0.00366712 -0.00211721   
     length 3.00391   
     axis 180 -30 -90   XYZ
    dof rx
    limits (-10.0 170.0)
  end
  begin
     id 20
     name lwrist
     direction 0.999991 0.00393016 -0.00141978   
     length 1.50195   
     axis -1.00488e-014 90 90   XYZ
    dof ry
    limits (-180.0 0.0)
 end
  begin
     id 21 
     name lhand
     direction 1 -4.49123e-011 2.72098e-026   
     length 1.2717   
     axis -1.73687e-014 90 90   XYZ
    dof rx rz
    limits (-90.0 90.0)
           (-45.0 45.0)
  end
  begin
     id 22 
     name lfingers
     direction 1 -4.48678e-011 5.4479e-026   
     length 1.02528   
     axis -3.47372e-014 90 90   XYZ
    dof rx
    limits (0.0 90.0)
  end
  begin
     id 23
     name lthumb
     direction 0.707107 -6.34851e-011 0.707107   
     length 1.4721   
     axis -90 45 -1.62303e-014   XYZ
    dof rx rz
    limits (-45.0 45.0)
           (-45.0 45.0)
  end
  begin
     id 24 
     name rclavicle
     direction -0.981723 0.189447 -0.0181673   
     length 3.74989  
     axis 0 0 0   XYZ 
    dof ry rz
    limits (-10.0 20.0)
           (-20.0 0.0)
  end
  begin
     id 25 
     name rhumerus
     direction -1 -4.48985e-011 2.38206e-027  
     length 4.61118   
     axis 180 30 90   XYZ
    dof rx ry rz
    limits (-90.0 60.0)
           (-90.0 90.0)
           (-90.0 90.0)
  end
  begin
     id 26 
     name rradius
     direction -1 -4.48977e-011 7.41019e-027   
     length 2.91491   
     axis 180 30 90   XYZ
    dof rx
    limits (-10.0 170.0)
  end
  begin
     id 27 
     name rwrist
     direction -1 -4.48549e-011 1.3624e-026   
     length 1.45745   
     axis -1.00488e-014 -90 -90   XYZ
    dof ry
    limits (-180.0 0.0)
  end
  begin
     id 28
     name rhand
     direction -1 -4.49107e-011 2.72109e-026   
     length 1.30769   
     axis -1.73687e-014 -90 -90   XYZ
    dof rx rz
    limits (-90.0 90.0)
           (-45.0 45.0)
  end
  begin
     id 29
     name rfingers
     direction -1 -4.48919e-011 5.44468e-026   
     length 1.05429   
     axis -3.47372e-014 -90 -90   XYZ
    dof rx
    limits (0.0 90.0)
  end
  begin
     id 30
     name rthumb
     direction -0.707107 -6.35315e-011 0.707107   
     length 1.51376   
     axis -90 -45 1.62303e-014   XYZ
    dof rx rz
    limits (-45.0 45.0)
           (-45.0 45.0)
  end
:hierarchy
  begin
    root lhipjoint rhipjoint lowerback
    lhipjoint lfemur
    lfemur ltibia
    ltibia lfoot
    lfoot ltoes
    rhipjoint rfemur
    rfemur rtibia
    rtibia rfoot
    rfoot rtoes
    lowerback upperback
    upperback thorax
    thorax lowerneck lclavicle rclavicle
    lowerneck upperneck
    upperneck head
    lclavicle lhumerus
    lhumerus lradius
    lradius lwrist
    lwrist lhand lthumb
    lhand lfingers
    rclavicle rhumerus
    rhumerus rradius
    rradius rwrist
    rwrist rhand rthumb
    rhand rfingers
  end

#!OML:ASF X:\für Bonn\!DataBase\2005_08_11_Bastian_Final\c3d\Bastian.ASF
:FULLY-SPECIFIED
:DEGREES
1
root 6.47707 16.4445 -1.07788 168.893 -3.26168 -176.23
lowerback 13.9755 -4.38298 2.51428
upperback 10.8505 -7.70124 1.37167
thorax 3.64132 -4.64905 0.790555
lowerneck -10.4116 -3.77207 -3.453
upperneck -6.27441 -3.81031 9.51206
head 0.0854418 -1.46343 3.57047
rclavicle -1.45423e-014 2.04003e-014
rhumerus -38.3994 30.4272 -93.9548
rradius 93.801
rwrist 3.32016
rhand -9.30064 6.74293
rfingers 7.12502
rthumb 16.657 -22.5623
lclavicle -1.45423e-014 2.04003e-014
lhumerus -38.7165 -37.9121 99.9132
lradius 115.171
lwrist 70.0716
lhand 22.1829 -3.08289
lfingers 7.12502
lthumb 46.5629 19.7735
rfemur -16.475 10.4126 2.32304
rtibia 48.5306
rfoot -177.439 -200.375
rtoes -6.85253
lfemur 15.6114 4.80244 -5.8344
ltibia 32.6182
lfoot -27.6496 -3.64857
ltoes -34.4328
2
root 6.37147 16.4167 -1.0153 168.922 -3.52415 -176.524
lowerback 14.3968 -4.3507 2.01654
upperback 10.8895 -7.72891 1.4079
thorax 3.52416 -4.70863 1.14487
lowerneck -10.582 -3.74629 -3.31984
upperneck -6.42586 -3.75028 9.50861
head 0.0577474 -1.42373 3.54565
rclavicle 9.57894e-015 -3.23025e-015
rhumerus -38.5942 29.2603 -93.7575
rradius 93.3485
rwrist 3.6316
rhand -9.23194 6.67611
rfingers 7.12502
rthumb 16.7232 -22.6236
lclavicle 9.57894e-015 -3.23025e-015
lhumerus -38.5521 -38.5513 99.4442
lradius 115.017
lwrist 70.3381
lhand 22.0631 -3.6827
lfingers 7.12502
lthumb 46.4519 19.2212
rfemur -17.1049 10.048 2.1446
rtibia 49.5597
rfoot -177.66 -201.67
rtoes -6.12611
lfemur 15.2213 4.91364 -6.48057
ltibia 33.019
lfoot -28.3768 -4.35956
ltoes -32.5667
3
root 6.26606 16.4171 -0.955978 168.954 -3.82492 -176.864
lowerback 14.8608 -4.31138 1.47276
upperback 10.9006 -7.74769 1.44027
thorax 3.36067 -4.76326 1.52738
lowerneck -10.7524 -3.73557 -3.17599
upperneck -6.567 -3.71559 9.462
head 0.033677 -1.39803 3.50258
rclavicle 4.59565e-014 -3.21534e-014
rhumerus -38.7655 28.0707 -93.6378
rradius 92.7134
rwrist 4.03931
rhand -9.30869 6.63077
rfingers 7.12502
rthumb 16.6493 -22.6752
lclavicle 4.59565e-014 -3.21534e-014
lhumerus -38.3774 -39.082 98.9982
lradius 114.81
lwrist 70.7029
lhand 22.0463 -4.11758
lfingers 7.12502
lthumb 46.4364 18.793
rfemur -17.6357 9.64496 2.02008
rtibia 50.6346
rfoot -178.227 -202.842
rtoes -5.95915
lfemur 14.77 4.91596 -7.25934
ltibia 33.4687
lfoot -28.9277 -5.02804
ltoes -30.432
4
root 6.16871 16.3978 -0.89329 168.972 -4.10664 -177.16
lowerback 15.3634 -4.25724 0.987791
upperback 10.9018 -7.74329 1.4698
thorax 3.16061 -4.80176 1.87859
lowerneck -10.9363 -3.74101 -3.04846
upperneck -6.65383 -3.70643 9.46205
head 0.0329452 -1.38385 3.47746
rclavicle 8.53532e-014 -4.60187e-014
rhumerus -38.9148 26.8448 -93.5812
rradius 91.9252
rwrist 4.59853
rhand -9.50648 6.70894
rfingers 7.12502
rthumb 16.4589 -22.6129
lclavicle 8.53532e-014 -4.60187e-014
lhumerus -38.2143 -39.5799 98.5292
lradius 114.563
lwrist 71.0908
lhand 22.1081 -4.4736
lfingers 7.12502
lthumb 46.4937 18.4125
rfemur -18.2232 9.21315 2.00425
rtibia 51.8613
rfoot -178.901 -203.819
rtoes -5.42793
lfemur 14.2481 4.88054 -7.97475
ltibia 34.0388
lfoot -29.3152 -5.6536
ltoes -28.1427
5
root 6.07512 16.3805 -0.830816 169.005 -4.4063 -177.426
lowerback 15.8732 -4.19802 0.578964
upperback 10.8846 -7.72123 1.49383
thorax 2.92791 -4.82324 2.18385
lowerneck -11.1156 -3.7709 -2.88725
upperneck -6.74289 -3.73431 9.44276
head 0.0316827 -1.3891 3.43764
rclavicle 5.62312e-014 -2.87741e-014
rhumerus -39.0973 25.496 -93.5714
rradius 91.0408
rwrist 5.32328
rhand -9.76857 6.92988
rfingers 7.12502
rthumb 16.2065 -22.4127
lclavicle 5.62312e-014 -2.87741e-014
lhumerus -38.1438 -39.9965 98.1554
lradius 114.311
lwrist 71.4505
lhand 22.2885 -4.63258
lfingers 7.12502
lthumb 46.6607 18.1817
rfemur -18.798 8.69692 2.07294
rtibia 53.1652
rfoot -179.856 -204.599
rtoes -3.7596
lfemur 13.671 4.78375 -8.68331
ltibia 34.6532
lfoot -29.6526 -6.12774
ltoes -26.1831
6
root 5.98698 16.3631 -0.768915 168.989 -4.70139 -177.646
lowerback 16.4364 -4.1403 0.238404
upperback 10.8705 -7.70036 1.51083
thorax 2.66342 -4.84197 2.45127
lowerneck -11.2674 -3.80218 -2.72628
upperneck -6.83672 -3.76245 9.46695
head 0.0252937 -1.39448 3.4134
rclavicle 3.26007e-014 -1.61016e-014
rhumerus -39.391 24.1989 -93.6473
rradius 90.156
rwrist 6.15662
rhand -10.2257 7.27586
rfingers 7.12502
rthumb 15.7663 -22.102
lclavicle 3.26007e-014 -1.61016e-014
lhumerus -38.137 -40.3257 97.8394
lradius 114.062
lwrist 71.753
lhand 22.5277 -4.55444
lfingers 7.12502
lthumb 46.8821 18.1635
rfemur -19.3189 8.21998 2.2613
rtibia 54.5672
rfoot -181.103 -205.065
rtoes -2.01161
lfemur 13.1052 4.6694 -9.32889
ltibia 35.3676
lfoot -29.9288 -6.49572
ltoes -24.7303
7
root 5.90355 16.3492 -0.709703 169 -4.99328 -177.793
lowerback 16.9603 -4.08313 -0.0261104
upperback 10.8419 -7.67001 1.55979
thorax 2.40013 -4.84991 2.70618
lowerneck -11.4385 -3.84223 -2.58987
upperneck -6.89417 -3.80756 9.45475
head 0.0346105 -1.40867 3.37999
rclavicle -9.28076e-014 5.11871e-014
rhumerus -39.7854 22.9395 -93.6959
rradius 89.3904
rwrist 6.94974
rhand -10.6908 7.66191
rfingers 7.12502
rthumb 15.3183 -21.7508
lclavicle -9.28076e-014 5.11871e-014
lhumerus -38.0948 -40.5522 97.5475
lradius 113.803
lwrist 71.9914
lhand 22.8777 -4.25555
lfingers 7.12502
lthumb 47.2058 18.3195
rfemur -19.8401 7.74565 2.57718
rtibia 55.975
rfoot -182.611 -205.077
rtoes -0.483661
lfemur 12.5386 4.52658 -9.88639
ltibia 36.0502
lfoot -30.0446 -6.84137
ltoes -23.2107
8
root 5.82272 16.3378 -0.654034 168.983 -5.27897 -177.909
lowerback 17.4816 -4.02372 -0.2078
upperback 10.8242 -7.62899 1.5788
thorax 2.13628 -4.84661 2.88224
lowerneck -11.6001 -3.90587 -2.41691
upperneck -6.96358 -3.88477 9.47224
head 0.0401775 -1.43863 3.34874
rclavicle -4.15957e-014 5.86415e-015
rhumerus -40.3018 21.6863 -93.8323
rradius 88.7962
rwrist 7.81439
rhand -11.1841 8.03885
rfingers 7.12502
rthumb 14.8431 -21.4095
lclavicle -4.15957e-014 5.86415e-015
lhumerus -38.0081 -40.7772 97.2048
lradius 113.548
lwrist 72.131
lhand 23.2705 -3.86213
lfingers 7.12502
lthumb 47.5687 18.5494
rfemur -20.3159 7.27839 2.96097
rtibia 57.4218
rfoot -184.456 -204.524
rtoes 0.244881
lfemur 12.0133 4.33933 -10.417
ltibia 36.7757
lfoot -30.1218 -7.16082
ltoes -21.71
9
root 5.74407 16.3327 -0.60545 168.953 -5.54447 -177.964
lowerback 17.9617 -3.97277 -0.333726
upperback 10.8111 -7.59414 1.61064
thorax 1.8951 -4.84375 3.0367
lowerneck -11.771 -3.95486 -2.28264
upperneck -6.98292 -3.94416 9.52936
head 0.0644912 -1.45835 3.33898
rclavicle 5.889e-014 -3.6477e-014
rhumerus -40.9298 20.5515 -93.973
rradius 88.4781
rwrist 8.52675
rhand -11.5669 8.36909
rfingers 7.12502
rthumb 14.4743 -21.1061
lclavicle 5.889e-014 -3.6477e-014
lhumerus -37.9276 -40.8885 96.8908
lradius 113.332
lwrist 72.1749
lhand 23.7182 -3.34215
lfingers 7.12502
lthumb 47.9818 18.8791
rfemur -20.725 6.8415 3.45313
rtibia 58.8141
rfoot -186.273 -203.438
rtoes 1.37452
lfemur 11.5785 4.15813 -10.8705
ltibia 37.3886
lfoot -30.1791 -7.38181
ltoes -20.4699
10
root 5.67075 16.3068 -0.561754 168.952 -5.78177 -177.971
lowerback 18.3528 -3.92602 -0.402333
upperback 10.7808 -7.54761 1.64953
thorax 1.67471 -4.82764 3.1564
lowerneck -11.9028 -4.01296 -2.14947
upperneck -7.01171 -4.0185 9.5627
head 0.0792805 -1.48801 3.32088
rclavicle 3.23025e-015 -3.67752e-015
rhumerus -41.6204 19.5304 -94.135
rradius 88.3559
rwrist 9.05808
rhand -11.8524 8.56576
rfingers 7.12502
rthumb 14.1992 -20.9289
lclavicle 3.23025e-015 -3.67752e-015
lhumerus -37.8327 -40.956 96.6216
lradius 113.115
lwrist 72.0654
lhand 24.1846 -2.89255
lfingers 7.12502
lthumb 48.4115 19.126
rfemur -21.2726 6.29324 4.02516
rtibia 60.1988
rfoot -187.624 -201.903
rtoes 1.87171
lfemur 11.2174 3.97388 -11.2407
ltibia 37.7877
lfoot -30.1878 -7.55904
ltoes -19.296
11
root 5.59402 16.3164 -0.529439 168.937 -6.04299 -177.96
lowerback 18.6851 -3.90126 -0.427495
upperback 10.7827 -7.5308 1.67141
thorax 1.514 -4.82652 3.22921
lowerneck -12.1041 -4.08596 -2.09823
upperneck -7.0135 -4.10083 9.68257
head 0.119984 -1.51483 3.34703
rclavicle -5.37216e-014 3.28989e-014
rhumerus -42.2151 18.7415 -94.323
rradius 88.361
rwrist 9.34078
rhand -12.066 8.63837
rfingers 7.12502
rthumb 13.9934 -20.8706
lclavicle -5.37216e-014 3.28989e-014
lhumerus -37.6758 -40.9371 96.3394
lradius 112.898
lwrist 71.7771
lhand 24.5961 -2.61908
lfingers 7.12502
lthumb 48.79 19.2165
rfemur -21.6913 5.56915 4.70165
rtibia 61.4494
rfoot -188.752 -200.048
rtoes 1.32156
lfemur 11.0307 3.47008 -11.7836
ltibia 37.958
lfoot -30.3095 -7.36906
ltoes -18.3246
12
root 5.51664 16.3662 -0.513003 168.967 -6.2831 -177.909
lowerback 18.8909 -3.88432 -0.435159
upperback 10.7867 -7.51701 1.70832
thorax 1.42021 -4.82459 3.29353
lowerneck -12.2345 -4.15497 -2.09192
upperneck -7.03631 -4.17426 9.80777
head 0.142852 -1.5398 3.38476
rclavicle -5.40197e-014 3.08116e-014
rhumerus -42.7222 18.1663 -94.4935
rradius 88.502
rwrist 9.27935
rhand -12.0977 8.4632
rfingers 7.12502
rthumb 13.9628 -21.0479
lclavicle -5.40197e-014 3.08116e-014
lhumerus -37.4335 -40.8114 96.0669
lradius 112.644
lwrist 71.3843
lhand 24.9375 -2.52959
lfingers 7.12502
lthumb 49.1038 19.1513
rfemur -22.0534 4.71819 5.52048
rtibia 62.5574
rfoot -189.867 -198.067
rtoes -0.34992
lfemur 10.9571 3.08397 -12.2361
ltibia 37.8963
lfoot -30.3565 -7.1713
ltoes -17.5809
